<svg width="100" height="100" viewBox="0 0 100 100" fill="none" xmlns="http://www.w3.org/2000/svg">
<g filter="url(#filter0_d_163_10424)">
<circle cx="50" cy="50" r="30" transform="rotate(180 50 50)" fill="#0C2DB2"/>
</g>
<path d="M56.6672 49.0635L45.9869 38.3834C45.7398 38.1362 45.4101 38 45.0585 38C44.7069 38 44.3771 38.1362 44.1301 38.3834L43.3436 39.1697C42.8318 39.6821 42.8318 40.5149 43.3436 41.0265L52.3121 49.995L43.3336 58.9735C43.0866 59.2207 42.9502 59.5503 42.9502 59.9017C42.9502 60.2535 43.0866 60.583 43.3336 60.8305L44.1201 61.6166C44.3674 61.8638 44.6969 62 45.0485 62C45.4001 62 45.7299 61.8638 45.9769 61.6166L56.6672 50.9267C56.9148 50.6787 57.0508 50.3476 57.05 49.9956C57.0508 49.6422 56.9148 49.3113 56.6672 49.0635Z" fill="white"/>
<defs>
<filter id="filter0_d_163_10424" x="0" y="0" width="100" height="100" filterUnits="userSpaceOnUse" color-interpolation-filters="sRGB">
<feFlood flood-opacity="0" result="BackgroundImageFix"/>
<feColorMatrix in="SourceAlpha" type="matrix" values="0 0 0 0 0 0 0 0 0 0 0 0 0 0 0 0 0 0 127 0" result="hardAlpha"/>
<feOffset/>
<feGaussianBlur stdDeviation="10"/>
<feComposite in2="hardAlpha" operator="out"/>
<feColorMatrix type="matrix" values="0 0 0 0 0 0 0 0 0 0 0 0 0 0 0 0 0 0 0.3 0"/>
<feBlend mode="normal" in2="BackgroundImageFix" result="effect1_dropShadow_163_10424"/>
<feBlend mode="normal" in="SourceGraphic" in2="effect1_dropShadow_163_10424" result="shape"/>
</filter>
</defs>
</svg>
