<svg width="224" height="71" viewBox="0 0 224 71" fill="none" xmlns="http://www.w3.org/2000/svg">
<path d="M195 27.0001C195 26.2001 195.1 25.6001 195.1 25.0001C197 24.6001 199.2 25.7001 200.3 27.5001C200.9 28.6001 201.1 29.7001 201.1 30.9001C201.1 35.6001 201.1 40.4001 201 45.1001C201 45.8001 201 46.4001 201 47.3001C199.5 47.4001 198.1 47.5001 196.7 47.2001C196.2 47.1001 195.8 46.6001 195.4 46.1001C195.2 45.9001 195.1 45.5001 194.9 45.2001C194 45.8001 193.1 46.4001 192.2 46.9001C189.1 48.5001 183.8 48.1001 180.5 44.9001C176 40.5001 175.8 31.8001 180.3 27.3001C183.9 23.7001 190.5 22.9001 194.4 26.5001C194.5 26.7001 194.7 26.8001 195 27.0001ZM189.2 42.1001C192.6 42.0001 195.1 39.3001 195 35.8001C194.9 32.5001 192.2 29.9001 188.9 30.0001C185.6 30.1001 183.2 32.7001 183.3 36.2001C183.4 39.7001 186 42.2001 189.2 42.1001Z" fill="url(#paint0_linear_134_1569)"/>
<path d="M125.7 38.1997C120.1 38.1997 114.6 38.1997 108.9 38.1997C109.4 39.9997 110.3 41.2997 111.8 41.9997C113.6 42.7997 115.4 42.6997 117.3 42.3997C117.8 42.2997 118.4 42.1997 118.9 41.9997C121.6 41.1997 123.3 42.0997 124.5 44.7997C123.8 45.1997 123.1 45.6997 122.4 46.0997C118.4 48.0997 114.3 48.2997 110.1 47.0997C106 45.9997 103 41.9997 102.6 37.6997C102.4 35.7997 102.5 33.7997 103.1 31.8997C104.6 27.4997 108.5 24.4997 113.1 24.1997C115.8 23.9997 118.3 24.3997 120.7 25.7997C123.5 27.4997 125.1 29.9997 125.6 33.1997C125.8 34.8997 125.8 36.3997 125.7 38.1997ZM119.5 33.5997C118.9 30.5997 116.6 29.1997 113.5 29.3997C111.7 29.4997 108.9 31.5997 109.2 33.5997C112.6 33.5997 116 33.5997 119.5 33.5997Z" fill="url(#paint1_linear_134_1569)"/>
<path d="M160.8 30.1C159.5 30.1 158.5 30.1 157.3 30.1C157.2 28.3 157.2 26.6 157.3 24.8C158.5 24.8 159.6 24.8 160.8 24.8C160.8 22.1 160.8 19.5 160.8 16.9C162.1 16.7 163.2 16.7 164.3 16.9C165.9 17.3 167.1 18.8 167.2 20.5C167.2 21.4 167.2 22.4 167.2 23.3C167.2 23.7 167.2 24.1 167.3 24.7C168 24.7 168.7 24.7 169.3 24.7C170.2 24.7 171.2 24.7 172.1 24.7C173.5 24.8 174.5 26 174.5 27.4C174.5 28.8 173.5 29.9 172.1 30C171 30.1 169.9 30 168.8 30C168.3 30 167.9 30 167.4 30C167.3 30.4 167.3 30.8 167.3 31.1C167.3 33.4 167.3 35.7 167.3 38.1C167.3 38.6 167.4 39.1 167.5 39.6C167.9 41.4 169 42.2 170.7 42.1C171.1 42.1 171.5 42 171.8 42C173.3 41.9 174.5 42.6 175.1 44.1C175.4 44.7 175.5 45.4 175.8 46.1C174.4 47.1 172.9 47.6 171.2 47.8C170 47.9 168.8 47.9 167.5 47.9C163.6 47.6 161.8 45.1 161.2 42C161 40.8 160.9 39.7 160.9 38.5C160.9 36.2 160.9 33.9 160.9 31.7C160.8 31.1 160.8 30.7 160.8 30.1Z" fill="url(#paint2_linear_134_1569)"/>
<path d="M204.7 43.7998C204.9 43.4998 205.1 43.2998 205.2 43.0998C206.3 41.1998 208.6 40.8998 210.4 41.7998C211.4 42.2998 212.5 42.5998 213.7 42.6998C214.4 42.7998 215.2 42.5998 215.9 42.3998C217.3 41.7998 217.4 40.2998 216.1 39.4998C215.4 39.0998 214.6 38.7998 213.8 38.4998C212.2 37.8998 210.6 37.3998 209.1 36.5998C204.8 34.2998 204.8 28.0998 208.8 25.6998C209.1 25.4998 209.4 25.2998 209.8 25.0998C214.3 23.3998 218.5 23.7998 222.3 26.7998C222.5 26.8998 222.6 27.0998 222.8 27.2998C222.4 27.8998 222 28.4998 221.5 28.9998C220.4 30.1998 219 30.3998 217.4 29.8998C216.6 29.6998 215.8 29.4998 214.9 29.2998C214.5 29.1998 214.1 29.2998 213.8 29.2998C212.9 29.3998 212.3 29.9998 212.2 30.5998C212.1 31.2998 212.4 31.9998 213.4 32.3998C214.7 32.9998 216.1 33.2998 217.4 33.8998C218.5 34.3998 219.7 34.8998 220.7 35.4998C224.5 37.9998 224 42.8998 221.3 45.3998C219.9 46.6998 218.2 47.3998 216.3 47.6998C213.1 48.1998 210.2 47.6998 207.4 46.0998C206.4 45.5998 205.4 44.7998 204.7 43.7998Z" fill="url(#paint3_linear_134_1569)"/>
<path d="M77.5 24.8002C79.3 24.8002 81.1 24.7002 82.8 24.8002C84.1 24.9002 84.9 25.7002 85.4 26.9002C86.6 30.2002 87.8 33.5002 89.1 36.7002C89.3 37.2002 89.5 37.7002 89.8 38.5002C90.1 37.8002 90.3 37.4002 90.4 37.0002C91.6 33.7002 92.9 30.4002 94.1 27.0002C94.8 25.2002 95.5 24.7002 97.4 24.7002C98.8 24.7002 100.3 24.7002 101.8 24.7002C101.7 25.0002 101.7 25.3002 101.6 25.6002C98.7 32.3002 95.7 39.1002 92.8 45.8002C92.4 46.8002 91.8 47.4002 90.6 47.2002C90 47.1002 89.3 47.1002 88.7 47.2002C87.6 47.3002 87 46.9002 86.6 45.8002C85.7 43.6002 84.7 41.4002 83.7 39.2002C81.8 34.8002 79.9 30.4002 77.9 26.0002C77.8 25.7002 77.7 25.3002 77.5 24.8002Z" fill="url(#paint4_linear_134_1569)"/>
<path d="M129.7 24.8002C130.9 24.8002 131.9 24.8002 133 24.8002C134.4 24.9002 135.2 25.6002 135.9 27.4002C136.2 27.1002 136.5 26.8002 136.7 26.5002C138 25.0002 139.7 24.2002 141.7 24.2002C143.6 24.2002 144.7 25.4002 144.5 27.3002C144.4 28.4002 144.3 29.6002 144.1 30.8002C143.5 30.7002 142.9 30.6002 142.3 30.5002C139.2 30.0002 136.8 31.6002 136.2 34.7002C136 35.6002 135.9 36.5002 135.9 37.5002C135.9 40.3002 135.9 43.2002 135.9 46.0002C135.9 46.4002 135.9 46.8002 135.9 47.3002C134.7 47.3002 133.5 47.4002 132.4 47.3002C131 47.1002 129.8 45.8002 129.7 44.4002C129.7 44.1002 129.7 43.7002 129.7 43.4002C129.7 37.6002 129.7 31.8002 129.6 26.1002C129.6 25.6002 129.7 25.3002 129.7 24.8002Z" fill="url(#paint5_linear_134_1569)"/>
<path d="M147.7 47.3003C147.7 46.8003 147.6 46.5003 147.6 46.2003C147.6 40.2003 147.6 34.2003 147.5 28.2003C147.5 27.7003 147.5 27.1003 147.6 26.6003C147.9 25.6003 148.7 24.9003 149.8 24.8003C151.1 24.7003 152.4 24.8003 153.8 24.8003C153.8 25.3003 153.8 25.7003 153.8 26.2003C153.8 32.1003 153.8 38.1003 153.7 44.0003C153.7 46.3003 152.7 47.3003 150.4 47.3003C149.7 47.3003 148.7 47.3003 147.7 47.3003Z" fill="url(#paint6_linear_134_1569)"/>
<path d="M150.8 22.3998C148.6 22.3998 146.9 20.7998 146.9 18.5998C147 15.9998 148.9 14.7998 150.7 14.7998C152.9 14.7998 154.6 16.3998 154.6 18.5998C154.7 20.6998 153 22.3998 150.8 22.3998Z" fill="url(#paint7_linear_134_1569)"/>
<path d="M143.9 64.8002C142.8 64.8002 142 64.8002 140.9 64.8002C140.2 62.8002 139.5 60.8002 138.6 58.3002C137.7 60.8002 137 62.7002 136.3 64.8002C133.3 64.8002 136.3 64.8002 133.3 64.8002C132.1 61.1002 130.9 57.6002 129.6 53.7002C132.5 53.7002 130.9 53.7002 132.5 53.7002C133.3 56.0002 134.1 58.6002 134.9 60.8002C134.7 60.8002 135.1 60.8002 134.9 60.8002C135.6 58.7002 136.7 55.9002 137.4 53.7002C138.3 53.7002 139.1 53.7002 140 53.7002C140.8 55.9002 141.5 58.1002 142.4 60.8002C143.2 58.6002 143.7 56.9002 144.3 55.2002C144.8 53.9002 144.8 53.7002 144.8 53.7002C144.8 53.7002 145 53.7002 147.6 53.7002C144.8 62.1002 145.2 60.8002 143.9 64.8002Z" fill="black"/>
<path d="M208.3 60.1C205.8 60.1 203.5 60.1 201.1 60.1C201.2 62.1 203.2 62.9 206.3 61.5C206.7 62 207.1 62.6 207.5 63.2C205.1 65.4 202.1 65.7 199.8 64C197.6 62.4 196.9 59 198.1 56.4C199.2 54 201.8 52.9 204.5 53.5C207.1 54.1 208.5 56.4 208.3 60.1ZM205.1 57.9C205.2 56.5 204.3 56 203.2 56C202 55.9 201.1 56.4 200.8 57.9C202.3 57.9 203.7 57.9 205.1 57.9Z" fill="black"/>
<path d="M162.2 60.1998C159.7 60.1998 157.4 60.1998 155 60.1998C155.3 62.0998 157.2 62.8998 160.2 61.4998C160.6 61.9998 161 62.5998 161.5 63.0998C159.4 65.2998 156.5 65.6998 154.1 64.0998C151.8 62.5998 150.9 59.3998 152 56.5998C153.1 54.0998 155.7 52.7998 158.5 53.4998C161.2 54.0998 162.5 56.3998 162.2 60.1998ZM159.2 57.8998C159.1 56.2998 158.1 55.8998 156.9 55.8998C155.8 55.9998 155 56.4998 154.9 57.8998C156.4 57.8998 157.8 57.8998 159.2 57.8998Z" fill="black"/>
<path d="M167.5 54.2999C169.4 53.8999 170.9 53.3999 172.3 53.3999C175.4 53.2999 177 54.8999 177.1 57.9999C177.2 60.1999 177.1 62.3999 177.1 64.5999C174.9 64.7999 172.9 64.9999 170.9 64.9999C168.9 64.9999 167.6 63.7999 167.4 62.0999C167.1 60.0999 168.1 58.7999 170.2 58.2999C171.4 57.9999 172.6 57.9999 173.8 57.8999C172.8 55.7999 172.4 55.6999 168.8 56.7999C168.5 56.0999 168.2 55.4999 167.5 54.2999ZM174.2 60.1999C172.1 60.1999 172.7 60.1999 172.1 60.1999C172 60.1999 171.8 60.1999 171.6 60.1999C171 60.1999 170.5 60.6999 170.5 61.2999C170.5 61.8999 170.9 62.3999 171.3 62.5999C172.3 62.8999 173.3 62.2999 174.2 60.1999Z" fill="black"/>
<path d="M189.5 64.6996C188.4 64.6996 187.5 64.6996 186.2 64.6996C184.9 61.1996 183.4 57.4996 181.9 53.5996C183.9 53.5996 183.8 53.5996 185.1 53.5996C186 55.8996 186.8 57.9996 187.9 60.7996C189 58.0996 189.9 55.8996 190.8 53.5996C191.6 53.5996 192.4 53.5996 193.7 53.5996C192.2 57.3996 190.9 61.0996 189.5 64.6996Z" fill="black"/>
<path d="M222.2 53.7002C220.8 56.1002 222.2 53.7002 220.8 56.1002C216.9 56.1002 217.4 55.7002 217.3 60.9002C217.3 64.9002 217.3 63.5002 217.3 64.9002C214.3 64.9002 217.3 64.9002 214.3 64.9002C214.3 64.3002 214.3 64.5002 214.3 64.3002C214.3 60.8002 214.3 57.4002 214.3 53.8002C216.4 53.7002 219.9 53.7002 222.2 53.7002Z" fill="black"/>
<path d="M56.6999 15.7004H11.1999V14.9004H56.6999V15.7004ZM3.09985 23.6004V24.4004H67.0999V23.6004H3.09985ZM24.4999 8.80039H43.0999V7.90039H24.4999V8.80039ZM15.4999 44.3004H54.1999V43.5004H15.4999V44.3004ZM23.5999 53.0004H43.0999V52.2004H23.5999V53.0004ZM58.7999 33.9004H6.69985V34.7004H58.7999V33.9004Z" fill="url(#paint8_linear_134_1569)"/>
<path d="M27.1 8.4C27.1 9.8 26 10.8 24.7 10.8C23.3 10.8 22.2999 9.7 22.2999 8.4C22.1999 7 23.3 6 24.7 6C26 6 27.1 7 27.1 8.4ZM43.0999 6C41.6999 6 40.7 7.1 40.7 8.4C40.7 9.8 41.7999 10.8 43.0999 10.8C44.5 10.8 45.5 9.7 45.5 8.4C45.5999 7 44.5 6 43.0999 6ZM56.7 12.9C55.2999 12.9 54.2999 14 54.2999 15.3C54.2999 16.6 55.4 17.7 56.7 17.7C58.1 17.7 59.0999 16.6 59.0999 15.3C59.0999 14 58.1 12.9 56.7 12.9ZM36.7999 12.9C35.3999 12.9 34.4 14 34.4 15.3C34.4 16.6 35.5 17.7 36.7999 17.7C38.2 17.7 39.2 16.6 39.2 15.3C39.2 14 38.2 12.9 36.7999 12.9ZM67.1 21.6C65.7 21.6 64.6999 22.7 64.6999 24C64.6999 25.3 65.7999 26.4 67.1 26.4C68.4 26.4 69.5 25.3 69.5 24C69.5 22.7 68.5 21.6 67.1 21.6ZM58 21.6C56.5999 21.6 55.5999 22.7 55.5999 24C55.5999 25.3 56.7 26.4 58 26.4C59.4 26.4 60.4 25.3 60.4 24C60.4 22.7 59.2999 21.6 58 21.6ZM45.7 19C42.9 19 40.7 21.2 40.7 24C40.7 26.8 42.9 29 45.7 29C48.5 29 50.7 26.8 50.7 24C50.7 21.2 48.5 19 45.7 19ZM58.7999 31.8C57.3999 31.8 56.4 32.9 56.4 34.2C56.4 35.6 57.5 36.6 58.7999 36.6C60.2 36.6 61.2 35.5 61.2 34.2C61.2 32.9 60.0999 31.8 58.7999 31.8ZM34 30.1C31.7 30.1 29.7999 32 29.7999 34.3C29.7999 36.6 31.7 38.5 34 38.5C36.2999 38.5 38.2 36.6 38.2 34.3C38.1 32 36.2999 30.1 34 30.1ZM6.69995 31.8C5.29995 31.8 4.29995 32.9 4.29995 34.2C4.29995 35.6 5.39995 36.6 6.69995 36.6C8.09995 36.6 9.09995 35.5 9.09995 34.2C9.09995 32.9 7.99995 31.8 6.69995 31.8ZM19.7 31.8C18.3 31.8 17.2999 32.9 17.2999 34.2C17.2999 35.6 18.4 36.6 19.7 36.6C21.1 36.6 22.1 35.5 22.1 34.2C22.2 32.9 21.1 31.8 19.7 31.8ZM15.5 41.4C14.1 41.4 13.1 42.5 13.1 43.8C13.1 45.2 14.2 46.2 15.5 46.2C16.9 46.2 17.9 45.1 17.9 43.8C18 42.5 16.9 41.4 15.5 41.4ZM55.5 41.4C54.0999 41.4 53.0999 42.5 53.0999 43.8C53.0999 45.2 54.2 46.2 55.5 46.2C56.9 46.2 57.9 45.1 57.9 43.8C58 42.5 56.9 41.4 55.5 41.4ZM23.6 50.1C22.2 50.1 21.2 51.2 21.2 52.5C21.2 53.9 22.3 54.9 23.6 54.9C25 54.9 26 53.8 26 52.5C26.1 51.2 25 50.1 23.6 50.1ZM44.5 50.1C43.0999 50.1 42.0999 51.2 42.0999 52.5C42.0999 53.9 43.2 54.9 44.5 54.9C45.9 54.9 46.9 53.8 46.9 52.5C47 51.2 45.9 50.1 44.5 50.1ZM34.4 58.8C33 58.8 32 59.9 32 61.2C32 62.6 33.1 63.6 34.4 63.6C35.8 63.6 36.7999 62.5 36.7999 61.2C36.7999 59.8 35.7 58.8 34.4 58.8ZM3.09995 21.6C1.69995 21.6 0.699951 22.7 0.699951 24C0.699951 25.3 1.79995 26.4 3.09995 26.4C4.49995 26.4 5.49995 25.3 5.49995 24C5.49995 22.7 4.39995 21.6 3.09995 21.6ZM23.6 20.6C21.7 20.6 20.1 22.2 20.1 24.1C20.1 26 21.7 27.6 23.6 27.6C25.5 27.6 27.1 26 27.1 24.1C27.1 22.2 25.6 20.6 23.6 20.6ZM11.2 12.9C9.79995 12.9 8.79995 14 8.79995 15.3C8.79995 16.6 9.89995 17.7 11.2 17.7C12.6 17.7 13.6 16.6 13.6 15.3C13.6 14 12.6 12.9 11.2 12.9Z" fill="url(#paint9_linear_134_1569)"/>
<defs>
<linearGradient id="paint0_linear_134_1569" x1="189.081" y1="47.858" x2="189.081" y2="24.2286" gradientUnits="userSpaceOnUse">
<stop stop-color="#082FB5"/>
<stop offset="1" stop-color="#490082"/>
</linearGradient>
<linearGradient id="paint1_linear_134_1569" x1="114.138" y1="47.8344" x2="114.138" y2="24.2185" gradientUnits="userSpaceOnUse">
<stop stop-color="#082FB5"/>
<stop offset="1" stop-color="#490082"/>
</linearGradient>
<linearGradient id="paint2_linear_134_1569" x1="166.451" y1="47.8074" x2="166.451" y2="16.7394" gradientUnits="userSpaceOnUse">
<stop stop-color="#082FB5"/>
<stop offset="1" stop-color="#490082"/>
</linearGradient>
<linearGradient id="paint3_linear_134_1569" x1="214.019" y1="47.935" x2="214.019" y2="23.9952" gradientUnits="userSpaceOnUse">
<stop stop-color="#082FB5"/>
<stop offset="1" stop-color="#490082"/>
</linearGradient>
<linearGradient id="paint4_linear_134_1569" x1="89.6463" y1="47.2854" x2="89.6463" y2="24.7663" gradientUnits="userSpaceOnUse">
<stop stop-color="#082FB5"/>
<stop offset="1" stop-color="#490082"/>
</linearGradient>
<linearGradient id="paint5_linear_134_1569" x1="137.071" y1="47.2645" x2="137.071" y2="24.186" gradientUnits="userSpaceOnUse">
<stop stop-color="#082FB5"/>
<stop offset="1" stop-color="#490082"/>
</linearGradient>
<linearGradient id="paint6_linear_134_1569" x1="150.777" y1="47.2748" x2="150.777" y2="24.7598" gradientUnits="userSpaceOnUse">
<stop stop-color="#082FB5"/>
<stop offset="1" stop-color="#490082"/>
</linearGradient>
<linearGradient id="paint7_linear_134_1569" x1="150.811" y1="22.4399" x2="150.811" y2="14.8024" gradientUnits="userSpaceOnUse">
<stop stop-color="#082FB5"/>
<stop offset="1" stop-color="#490082"/>
</linearGradient>
<linearGradient id="paint8_linear_134_1569" x1="10.6914" y1="30.4789" x2="73.0051" y2="30.4789" gradientUnits="userSpaceOnUse">
<stop stop-color="#490082"/>
<stop offset="0.6336" stop-color="#1D20A5"/>
<stop offset="1" stop-color="#082FB5"/>
</linearGradient>
<linearGradient id="paint9_linear_134_1569" x1="8.82905" y1="34.7993" x2="75.9009" y2="34.7993" gradientUnits="userSpaceOnUse">
<stop stop-color="#490082"/>
<stop offset="0.6336" stop-color="#1D20A5"/>
<stop offset="1" stop-color="#082FB5"/>
</linearGradient>
</defs>
</svg>
