<svg width="193" height="161" viewBox="0 0 193 161" fill="none" xmlns="http://www.w3.org/2000/svg">
<path d="M156.37 27.0867H29.3194V24.8528H156.37V27.0867ZM6.70166 49.146V51.3798H185.41V49.146H6.70166ZM66.4572 7.81972H118.394V5.30664H66.4572V7.81972ZM41.3263 106.947H149.389V104.713H41.3263V106.947ZM63.9441 131.24H118.394V129.006H63.9441V131.24ZM162.233 77.9068H16.754V80.1406H162.233V77.9068Z" fill="#E2E7F8"/>
<path d="M73.7171 6.70155C73.7171 10.6108 70.6455 13.4031 67.0155 13.4031C63.1063 13.4031 60.314 10.3316 60.314 6.70155C60.0347 2.79231 63.1063 0 67.0155 0C70.6455 0 73.7171 2.79231 73.7171 6.70155ZM118.394 0C114.485 0 111.693 3.07154 111.693 6.70155C111.693 10.6108 114.764 13.4031 118.394 13.4031C122.303 13.4031 125.096 10.3316 125.096 6.70155C125.375 2.79231 122.303 0 118.394 0ZM156.37 19.267C152.46 19.267 149.668 22.3385 149.668 25.9685C149.668 29.5985 152.74 32.6701 156.37 32.6701C160.279 32.6701 163.071 29.5985 163.071 25.9685C163.071 22.3385 160.279 19.267 156.37 19.267ZM100.802 19.267C96.8932 19.267 94.1009 22.3385 94.1009 25.9685C94.1009 29.5985 97.1725 32.6701 100.802 32.6701C104.712 32.6701 107.504 29.5985 107.504 25.9685C107.504 22.3385 104.712 19.267 100.802 19.267ZM185.41 43.5601C181.5 43.5601 178.708 46.6316 178.708 50.2616C178.708 53.8916 181.78 56.9632 185.41 56.9632C189.04 56.9632 192.111 53.8916 192.111 50.2616C192.111 46.6316 189.319 43.5601 185.41 43.5601ZM160 43.5601C156.09 43.5601 153.298 46.6316 153.298 50.2616C153.298 53.8916 156.37 56.9632 160 56.9632C163.909 56.9632 166.701 53.8916 166.701 50.2616C166.701 46.6316 163.63 43.5601 160 43.5601ZM125.654 36.3001C117.836 36.3001 111.693 42.4432 111.693 50.2616C111.693 58.0801 117.836 64.2232 125.654 64.2232C133.473 64.2232 139.616 58.0801 139.616 50.2616C139.616 42.4432 133.473 36.3001 125.654 36.3001ZM162.233 72.0417C158.324 72.0417 155.532 75.1132 155.532 78.7432C155.532 82.6525 158.603 85.4448 162.233 85.4448C166.143 85.4448 168.935 82.3732 168.935 78.7432C168.935 75.1132 165.863 72.0417 162.233 72.0417ZM92.984 67.2947C86.5617 67.2947 81.2563 72.6001 81.2563 79.0225C81.2563 85.4448 86.5617 90.7502 92.984 90.7502C99.4063 90.7502 104.712 85.4448 104.712 79.0225C104.433 72.6001 99.4063 67.2947 92.984 67.2947ZM16.7539 72.0417C12.8446 72.0417 10.0523 75.1132 10.0523 78.7432C10.0523 82.6525 13.1239 85.4448 16.7539 85.4448C20.6631 85.4448 23.4554 82.3732 23.4554 78.7432C23.4554 75.1132 20.3839 72.0417 16.7539 72.0417ZM53.0539 72.0417C49.1447 72.0417 46.3524 75.1132 46.3524 78.7432C46.3524 82.6525 49.4239 85.4448 53.0539 85.4448C56.9632 85.4448 59.7555 82.3732 59.7555 78.7432C60.0347 75.1132 56.9632 72.0417 53.0539 72.0417ZM41.3262 98.8479C37.417 98.8479 34.6247 101.919 34.6247 105.549C34.6247 109.459 37.6962 112.251 41.3262 112.251C45.2355 112.251 48.0278 109.179 48.0278 105.549C48.307 101.919 45.2355 98.8479 41.3262 98.8479ZM153.019 98.8479C149.109 98.8479 146.317 101.919 146.317 105.549C146.317 109.459 149.389 112.251 153.019 112.251C156.928 112.251 159.72 109.179 159.72 105.549C160 101.919 156.928 98.8479 153.019 98.8479ZM63.944 123.141C60.0347 123.141 57.2424 126.213 57.2424 129.843C57.2424 133.752 60.314 136.544 63.944 136.544C67.8532 136.544 70.6455 133.473 70.6455 129.843C70.9247 126.213 67.8532 123.141 63.944 123.141ZM122.303 123.141C118.394 123.141 115.602 126.213 115.602 129.843C115.602 133.752 118.673 136.544 122.303 136.544C126.213 136.544 129.005 133.473 129.005 129.843C129.284 126.213 126.213 123.141 122.303 123.141ZM94.1009 147.434C90.1917 147.434 87.3994 150.506 87.3994 154.136C87.3994 158.045 90.4709 160.837 94.1009 160.837C98.0102 160.837 100.802 157.766 100.802 154.136C100.802 150.226 97.7309 147.434 94.1009 147.434ZM6.70155 43.5601C2.79231 43.5601 0 46.6316 0 50.2616C0 53.8916 3.07154 56.9632 6.70155 56.9632C10.6108 56.9632 13.4031 53.8916 13.4031 50.2616C13.4031 46.6316 10.3316 43.5601 6.70155 43.5601ZM63.944 40.7678C58.6386 40.7678 54.1709 45.2355 54.1709 50.5409C54.1709 55.8463 58.6386 60.314 63.944 60.314C69.2494 60.314 73.7171 55.8463 73.7171 50.5409C73.7171 45.2355 69.5286 40.7678 63.944 40.7678ZM29.3193 19.267C25.41 19.267 22.6177 22.3385 22.6177 25.9685C22.6177 29.5985 25.6893 32.6701 29.3193 32.6701C33.2285 32.6701 36.0208 29.5985 36.0208 25.9685C36.0208 22.3385 33.2285 19.267 29.3193 19.267Z" fill="#E2E7F8"/>
</svg>
