<svg width="175" height="146" viewBox="0 0 175 146" fill="none" xmlns="http://www.w3.org/2000/svg">
<path d="M141.944 24.5872H26.6143V22.5595H141.944V24.5872ZM6.08301 44.6115V46.6393H168.305V44.6115H6.08301ZM60.3261 7.09766H107.472V4.81641H60.3261V7.09766ZM37.5136 97.0803H135.607V95.0525H37.5136V97.0803ZM58.0448 119.132H107.472V117.105H58.0448V119.132ZM147.267 70.7192H15.208V72.747H147.267V70.7192Z" fill="#D8DFFC"/>
<path d="M66.9167 6.08333C66.9167 9.63194 64.1285 12.1667 60.8333 12.1667C57.2847 12.1667 54.75 9.37847 54.75 6.08333C54.4965 2.53472 57.2847 0 60.8333 0C64.1285 0 66.9167 2.53472 66.9167 6.08333ZM107.472 0C103.924 0 101.389 2.78819 101.389 6.08333C101.389 9.63194 104.177 12.1667 107.472 12.1667C111.021 12.1667 113.556 9.37847 113.556 6.08333C113.809 2.53472 111.021 0 107.472 0ZM141.944 17.4896C138.396 17.4896 135.861 20.2778 135.861 23.5729C135.861 26.8681 138.649 29.6563 141.944 29.6563C145.493 29.6563 148.028 26.8681 148.028 23.5729C148.028 20.2778 145.493 17.4896 141.944 17.4896ZM91.5035 17.4896C87.9549 17.4896 85.4202 20.2778 85.4202 23.5729C85.4202 26.8681 88.2083 29.6563 91.5035 29.6563C95.0521 29.6563 97.5868 26.8681 97.5868 23.5729C97.5868 20.2778 95.0521 17.4896 91.5035 17.4896ZM168.306 39.5417C164.757 39.5417 162.222 42.3299 162.222 45.625C162.222 48.9201 165.01 51.7083 168.306 51.7083C171.601 51.7083 174.389 48.9201 174.389 45.625C174.389 42.3299 171.854 39.5417 168.306 39.5417ZM145.24 39.5417C141.691 39.5417 139.156 42.3299 139.156 45.625C139.156 48.9201 141.944 51.7083 145.24 51.7083C148.788 51.7083 151.323 48.9201 151.323 45.625C151.323 42.3299 148.535 39.5417 145.24 39.5417ZM114.063 32.9514C106.965 32.9514 101.389 38.5278 101.389 45.625C101.389 52.7222 106.965 58.2986 114.063 58.2986C121.16 58.2986 126.736 52.7222 126.736 45.625C126.736 38.5278 121.16 32.9514 114.063 32.9514ZM147.267 65.3958C143.719 65.3958 141.184 68.184 141.184 71.4792C141.184 75.0278 143.972 77.5625 147.267 77.5625C150.816 77.5625 153.351 74.7743 153.351 71.4792C153.351 68.184 150.563 65.3958 147.267 65.3958ZM84.4063 61.0868C78.5764 61.0868 73.7604 65.9028 73.7604 71.7326C73.7604 77.5625 78.5764 82.3785 84.4063 82.3785C90.2361 82.3785 95.0521 77.5625 95.0521 71.7326C94.7986 65.9028 90.2361 61.0868 84.4063 61.0868ZM15.2083 65.3958C11.6597 65.3958 9.125 68.184 9.125 71.4792C9.125 75.0278 11.9132 77.5625 15.2083 77.5625C18.7569 77.5625 21.2917 74.7743 21.2917 71.4792C21.2917 68.184 18.5035 65.3958 15.2083 65.3958ZM48.1597 65.3958C44.6111 65.3958 42.0764 68.184 42.0764 71.4792C42.0764 75.0278 44.8646 77.5625 48.1597 77.5625C51.7083 77.5625 54.2431 74.7743 54.2431 71.4792C54.4965 68.184 51.7083 65.3958 48.1597 65.3958ZM37.5139 89.7292C33.9653 89.7292 31.4306 92.5174 31.4306 95.8125C31.4306 99.3611 34.2188 101.896 37.5139 101.896C41.0625 101.896 43.5972 99.1076 43.5972 95.8125C43.8507 92.5174 41.0625 89.7292 37.5139 89.7292ZM138.903 89.7292C135.354 89.7292 132.819 92.5174 132.819 95.8125C132.819 99.3611 135.608 101.896 138.903 101.896C142.451 101.896 144.986 99.1076 144.986 95.8125C145.24 92.5174 142.451 89.7292 138.903 89.7292ZM58.0451 111.781C54.4965 111.781 51.9618 114.569 51.9618 117.865C51.9618 121.413 54.75 123.948 58.0451 123.948C61.5938 123.948 64.1285 121.16 64.1285 117.865C64.382 114.569 61.5938 111.781 58.0451 111.781ZM111.021 111.781C107.472 111.781 104.938 114.569 104.938 117.865C104.938 121.413 107.726 123.948 111.021 123.948C114.569 123.948 117.104 121.16 117.104 117.865C117.358 114.569 114.569 111.781 111.021 111.781ZM85.4202 133.833C81.8715 133.833 79.3368 136.622 79.3368 139.917C79.3368 143.465 82.125 146 85.4202 146C88.9688 146 91.5035 143.212 91.5035 139.917C91.5035 136.368 88.7153 133.833 85.4202 133.833ZM6.08333 39.5417C2.53472 39.5417 0 42.3299 0 45.625C0 48.9201 2.78819 51.7083 6.08333 51.7083C9.63195 51.7083 12.1667 48.9201 12.1667 45.625C12.1667 42.3299 9.37847 39.5417 6.08333 39.5417ZM58.0451 37.0069C53.2292 37.0069 49.1736 41.0625 49.1736 45.8785C49.1736 50.6944 53.2292 54.75 58.0451 54.75C62.8611 54.75 66.9167 50.6944 66.9167 45.8785C66.9167 41.0625 63.1146 37.0069 58.0451 37.0069ZM26.6146 17.4896C23.066 17.4896 20.5313 20.2778 20.5313 23.5729C20.5313 26.8681 23.3194 29.6563 26.6146 29.6563C30.1632 29.6563 32.6979 26.8681 32.6979 23.5729C32.6979 20.2778 30.1632 17.4896 26.6146 17.4896Z" fill="#D8DFFC"/>
</svg>
