<svg width="198" height="166" viewBox="0 0 198 166" fill="none" xmlns="http://www.w3.org/2000/svg">
<path d="M160.439 27.7912H30.0824V25.4992H160.439V27.7912ZM6.87598 50.4246V52.7166H190.235V50.4246H6.87598ZM68.1867 8.02282H121.475V5.44434H68.1867V8.02282ZM42.4018 109.73H153.277V107.438H42.4018V109.73ZM65.6082 134.655H121.475V132.363H65.6082V134.655ZM166.456 79.934H17.1899V82.226H166.456V79.934Z" fill="#B5DBF8"/>
<path d="M75.6357 6.87597C75.6357 10.8869 72.4842 13.7519 68.7597 13.7519C64.7487 13.7519 61.8837 10.6005 61.8837 6.87597C61.5972 2.86499 64.7487 0 68.7597 0C72.4842 0 75.6357 2.86499 75.6357 6.87597ZM121.475 0C117.464 0 114.599 3.15148 114.599 6.87597C114.599 10.8869 117.751 13.7519 121.475 13.7519C125.486 13.7519 128.351 10.6005 128.351 6.87597C128.638 2.86499 125.486 0 121.475 0ZM160.439 19.7684C156.428 19.7684 153.563 22.9199 153.563 26.6444C153.563 30.3689 156.715 33.5204 160.439 33.5204C164.45 33.5204 167.315 30.3689 167.315 26.6444C167.315 22.9199 164.45 19.7684 160.439 19.7684ZM103.426 19.7684C99.4151 19.7684 96.5501 22.9199 96.5501 26.6444C96.5501 30.3689 99.7016 33.5204 103.426 33.5204C107.437 33.5204 110.302 30.3689 110.302 26.6444C110.302 22.9199 107.437 19.7684 103.426 19.7684ZM190.235 44.6938C186.224 44.6938 183.359 47.8453 183.359 51.5698C183.359 55.2943 186.511 58.4457 190.235 58.4457C193.96 58.4457 197.111 55.2943 197.111 51.5698C197.111 47.8453 194.246 44.6938 190.235 44.6938ZM164.164 44.6938C160.153 44.6938 157.288 47.8453 157.288 51.5698C157.288 55.2943 160.439 58.4457 164.164 58.4457C168.175 58.4457 171.04 55.2943 171.04 51.5698C171.04 47.8453 167.888 44.6938 164.164 44.6938ZM128.924 37.2448C120.902 37.2448 114.599 43.5478 114.599 51.5698C114.599 59.5917 120.902 65.8947 128.924 65.8947C136.946 65.8947 143.249 59.5917 143.249 51.5698C143.249 43.5478 136.946 37.2448 128.924 37.2448ZM166.456 73.9167C162.445 73.9167 159.58 77.0682 159.58 80.7926C159.58 84.8036 162.731 87.6686 166.456 87.6686C170.467 87.6686 173.332 84.5171 173.332 80.7926C173.332 77.0682 170.18 73.9167 166.456 73.9167ZM95.4041 69.0462C88.8146 69.0462 83.3711 74.4897 83.3711 81.0791C83.3711 87.6686 88.8146 93.1121 95.4041 93.1121C101.994 93.1121 107.437 87.6686 107.437 81.0791C107.151 74.4897 101.994 69.0462 95.4041 69.0462ZM17.1899 73.9167C13.1789 73.9167 10.314 77.0682 10.314 80.7926C10.314 84.8036 13.4654 87.6686 17.1899 87.6686C21.2009 87.6686 24.0659 84.5171 24.0659 80.7926C24.0659 77.0682 20.9144 73.9167 17.1899 73.9167ZM54.4348 73.9167C50.4238 73.9167 47.5588 77.0682 47.5588 80.7926C47.5588 84.8036 50.7103 87.6686 54.4348 87.6686C58.4457 87.6686 61.3107 84.5171 61.3107 80.7926C61.5972 77.0682 58.4457 73.9167 54.4348 73.9167ZM42.4018 101.421C38.3908 101.421 35.5258 104.572 35.5258 108.297C35.5258 112.307 38.6773 115.172 42.4018 115.172C46.4128 115.172 49.2778 112.021 49.2778 108.297C49.5643 104.572 46.4128 101.421 42.4018 101.421ZM157.001 101.421C152.99 101.421 150.125 104.572 150.125 108.297C150.125 112.307 153.277 115.172 157.001 115.172C161.012 115.172 163.877 112.021 163.877 108.297C164.164 104.572 161.012 101.421 157.001 101.421ZM65.6082 126.346C61.5972 126.346 58.7322 129.497 58.7322 133.222C58.7322 137.233 61.8837 140.098 65.6082 140.098C69.6192 140.098 72.4842 136.946 72.4842 133.222C72.7707 129.497 69.6192 126.346 65.6082 126.346ZM125.486 126.346C121.475 126.346 118.61 129.497 118.61 133.222C118.61 137.233 121.762 140.098 125.486 140.098C129.497 140.098 132.362 136.946 132.362 133.222C132.649 129.497 129.497 126.346 125.486 126.346ZM96.5501 151.271C92.5391 151.271 89.6741 154.423 89.6741 158.147C89.6741 162.158 92.8256 165.023 96.5501 165.023C100.561 165.023 103.426 161.872 103.426 158.147C103.426 154.136 100.275 151.271 96.5501 151.271ZM6.87597 44.6938C2.86499 44.6938 0 47.8453 0 51.5698C0 55.2943 3.15149 58.4457 6.87597 58.4457C10.887 58.4457 13.7519 55.2943 13.7519 51.5698C13.7519 47.8453 10.6005 44.6938 6.87597 44.6938ZM65.6082 41.8288C60.1647 41.8288 55.5807 46.4128 55.5807 51.8563C55.5807 57.2997 60.1647 61.8837 65.6082 61.8837C71.0517 61.8837 75.6357 57.2997 75.6357 51.8563C75.6357 46.4128 71.3382 41.8288 65.6082 41.8288ZM30.0824 19.7684C26.0714 19.7684 23.2064 22.9199 23.2064 26.6444C23.2064 30.3689 26.3579 33.5204 30.0824 33.5204C34.0933 33.5204 36.9583 30.3689 36.9583 26.6444C36.9583 22.9199 34.0933 19.7684 30.0824 19.7684Z" fill="#B5DBF8"/>
</svg>
