<svg width="28" height="28" viewBox="0 0 28 28" fill="none" xmlns="http://www.w3.org/2000/svg">
<g clip-path="url(#clip0_163_10272)">
<path d="M9.02344 16.4609C8.57084 16.4609 8.20312 16.8287 8.20312 17.2812C8.20312 17.7338 8.57084 18.1016 9.02344 18.1016C9.47603 18.1016 9.84375 17.7338 9.84375 17.2812C9.84375 16.8287 9.47603 16.4609 9.02344 16.4609Z" fill="#0C2DB2"/>
<path d="M15.5859 11.5391H2.46094C1.10392 11.5391 0 12.643 0 14V23.8438C0 25.2008 1.10392 26.3047 2.46094 26.3047H15.5859C16.943 26.3047 18.0469 25.2008 18.0469 23.8438V14C18.0469 12.643 16.943 11.5391 15.5859 11.5391ZM9.84375 19.5911V22.2031C9.84375 22.6565 9.47685 23.0234 9.02344 23.0234C8.57002 23.0234 8.20312 22.6565 8.20312 22.2031V19.5911C7.25036 19.2513 6.5625 18.3493 6.5625 17.2812C6.5625 15.9242 7.66642 14.8203 9.02344 14.8203C10.3805 14.8203 11.4844 15.9242 11.4844 17.2812C11.4844 18.3493 10.7965 19.2513 9.84375 19.5911Z" fill="#0C2DB2"/>
<path d="M25.5391 16.4609C24.471 16.4609 23.569 17.1488 23.2292 18.1016H19.6875V19.7422H23.2292C23.569 20.695 24.471 21.3828 25.5391 21.3828C26.8961 21.3828 28 20.2789 28 18.9219C28 17.5649 26.8961 16.4609 25.5391 16.4609Z" fill="#0C2DB2"/>
<path d="M25.5391 23.0234C25.0895 23.0234 24.6733 23.1535 24.3102 23.3649L22.885 21.6744C22.7288 21.4893 22.4997 21.3828 22.2578 21.3828H19.6875V23.0234H21.8765L23.2374 24.6378C23.1396 24.9029 23.0781 25.1857 23.0781 25.4844C23.0781 26.8414 24.182 28 25.5391 28C26.8961 28 28 26.8414 28 25.4844C28 24.1274 26.8961 23.0234 25.5391 23.0234Z" fill="#0C2DB2"/>
<path d="M25.5391 9.89844C24.182 9.89844 23.0781 11.0024 23.0781 12.3594C23.0781 12.7578 23.1822 13.1288 23.351 13.4621L21.9285 14.8203H19.6875V16.4609H22.2578C22.4685 16.4609 22.672 16.3792 22.8242 16.2334L24.5336 14.6003C24.8413 14.739 25.1802 14.8203 25.5391 14.8203C26.8961 14.8203 28 13.7164 28 12.3594C28 11.0024 26.8961 9.89844 25.5391 9.89844Z" fill="#0C2DB2"/>
<path d="M9.02344 0C5.40493 0 2.46094 2.94399 2.46094 6.5625V9.89844H5.74219V6.5625C5.74219 4.75284 7.21377 3.28125 9.02344 3.28125C10.8331 3.28125 12.3047 4.75284 12.3047 6.5625V9.89844H15.5859V6.5625C15.5859 2.94399 12.6419 0 9.02344 0Z" fill="#0C2DB2"/>
</g>
<defs>
<clipPath id="clip0_163_10272">
<rect width="28" height="28" fill="white"/>
</clipPath>
</defs>
</svg>
