<svg width="25" height="31" viewBox="0 0 25 31" fill="none" xmlns="http://www.w3.org/2000/svg">
<path d="M12.3623 20.0566C11.6921 20.0566 11.1177 20.6311 11.1177 21.3012C11.1177 21.9714 11.6921 22.5459 12.3623 22.5459C13.0325 22.5459 13.6069 21.9714 13.6069 21.3012C13.6069 20.5832 13.0325 20.0566 12.3623 20.0566Z" fill="#0C2DB2"/>
<path d="M22.8455 16.1318H1.87866C1.25636 16.1318 0.681926 16.3712 0.34684 16.802C0.0596239 17.1371 -0.0361149 17.52 0.0117545 17.9509L1.73505 26.9503C1.87866 27.7641 2.64457 28.3385 3.60196 28.3385H21.0743C22.0317 28.3385 22.7976 27.7641 22.9412 26.9503L24.6645 17.903C24.7124 17.4722 24.6166 17.0892 24.3294 16.7541C23.9943 16.3712 23.4199 16.1318 22.8455 16.1318ZM12.3621 23.5037C11.1653 23.5037 10.1601 22.4985 10.1601 21.3017C10.1601 20.105 11.1175 19.0997 12.3621 19.0997C13.6067 19.0997 14.5641 20.0571 14.5641 21.3017C14.5641 22.4985 13.5588 23.5037 12.3621 23.5037Z" fill="#0C2DB2"/>
<path d="M21.0745 29.1514H3.65008C3.36286 29.1514 3.17139 29.3428 3.17139 29.6301C3.17139 29.9173 3.36286 30.1088 3.65008 30.1088H21.0745C21.3618 30.1088 21.5532 29.9173 21.5532 29.6301C21.5532 29.3428 21.3139 29.1514 21.0745 29.1514Z" fill="#0C2DB2"/>
<path d="M9.05886 6.4145C9.68117 7.94632 10.8779 9.43027 12.3619 9.43027C13.8458 9.43027 15.0425 7.89845 15.6648 6.4145C15.9521 6.36663 16.2871 6.12728 16.4308 5.60072C16.6701 4.93055 16.6222 3.87742 15.9999 3.39873C15.6648 1.43608 14.133 0 12.3619 0C10.5428 0 9.05886 1.43608 8.72378 3.4466C8.14934 3.92529 8.10147 4.97842 8.29295 5.64859C8.48443 6.12728 8.77165 6.36663 9.05886 6.4145Z" fill="#0C2DB2"/>
<path d="M4.65515 15.1747H10.0644H20.0212C20.1648 15.1747 20.3085 15.1269 20.4042 14.9833C20.4999 14.8397 20.5478 14.7439 20.4999 14.6003L20.1648 12.877C20.0212 11.9196 19.2553 11.1058 18.2022 10.7708C17.1012 10.4835 15.9523 10.2442 14.7556 10.1006C14.612 10.1006 14.4205 10.1485 14.3248 10.2921C14.229 10.4357 14.1812 10.5793 14.229 10.7229C14.5641 11.8239 14.5641 13.0206 14.2769 14.1695H13.7503L13.7025 13.3557L14.0376 12.5898C14.0854 12.5419 14.0854 12.4462 14.0854 12.3983V11.2495C14.0854 11.0101 13.8461 10.7708 13.6067 10.7708H11.1654C10.8782 10.7708 10.6867 11.0101 10.6867 11.2495V12.3983C10.6867 12.4462 10.6867 12.5419 10.7346 12.5898L11.0697 13.3557L11.0218 14.1695H10.4952C10.1601 13.0206 10.208 11.8239 10.5431 10.7229C10.591 10.5793 10.5431 10.3878 10.4474 10.2921C10.3516 10.1485 10.208 10.1006 10.0165 10.1006C8.77192 10.2442 7.57519 10.4357 6.52206 10.7708C5.5168 11.058 4.70302 11.8718 4.60728 12.8291L4.2722 14.6003C4.22433 14.7439 4.2722 14.8875 4.36794 14.9833C4.36794 15.1269 4.51154 15.1747 4.65515 15.1747Z" fill="#0C2DB2"/>
</svg>
